<svg class="hover:fill-slate-300" viewBox="0 0 40 40" fill="none" xmlns="http://www.w3.org/2000/svg"><rect x="10.939" y="1.163" width="27.014" height="31.496" rx="3.5" transform="rotate(15 10.94 1.163)" stroke="#fff" stroke-width="3"/><path fill-rule="evenodd" clip-rule="evenodd" d="M13.931 10.639c.14-.525.722-.824 1.298-.67l13.686 3.667c.576.155.93.705.79 1.229-.141.524-.722.824-1.299.67l-13.685-3.668c-.577-.154-.93-.704-.79-1.228Zm-1.525 5.695c.14-.524.721-.824 1.298-.67l13.685 3.667c.577.155.93.705.79 1.23-.14.523-.722.823-1.298.669l-13.686-3.667c-.576-.155-.93-.705-.79-1.23Z" fill="#fff"/><path stroke="#fff" stroke-width="2" stroke-linecap="round" d="m11.85 22.27 7.346 1.968"/></svg>
