<svg class="hover:fill-blue-500" fill="#000" xmlns="http://www.w3.org/2000/svg" viewBox="0 0 40 40"><path d="M38.695 3.657a15.841 15.841 0 0 1-5.14 2.029 7.942 7.942 0 0 0-5.902-2.643c-4.464 0-8.087 3.75-8.087 8.372 0 .657.07 1.293.209 1.906-6.722-.35-12.68-3.678-16.674-8.748a8.602 8.602 0 0 0-1.094 4.211 8.447 8.447 0 0 0 3.6 6.967 7.886 7.886 0 0 1-3.666-1.043v.102c0 4.058 2.79 7.443 6.492 8.209a7.644 7.644 0 0 1-2.132.295 7.81 7.81 0 0 1-1.522-.149c1.028 3.326 4.014 5.746 7.554 5.812a15.887 15.887 0 0 1-11.975 3.47 22.363 22.363 0 0 0 12.4 3.757c14.878 0 23.01-12.754 23.01-23.818 0-.364-.005-.728-.019-1.084a16.708 16.708 0 0 0 4.032-4.335 15.683 15.683 0 0 1-4.642 1.318 8.336 8.336 0 0 0 3.556-4.626"/></svg>