<svg xmlns="http://www.w3.org/2000/svg" viewBox="0 0 38 38">
  <g fill-rule="evenodd">
    <path d="M35.633 18.93c0 9.21-7.49 16.702-16.697 16.702-9.21 0-16.7-7.49-16.7-16.7 0-9.21 7.49-16.7 16.7-16.7 9.206 0 16.697 7.49 16.697 16.7zM18.936 0C8.492 0 0 8.493 0 18.93c0 10.442 8.492 18.935 18.936 18.935 10.436 0 18.93-8.493 18.93-18.934C37.866 8.495 29.373 0 18.936 0z"/>
    <path d="M11.26 2.698c.132.16 13.27 16.247 13.9 32.434l2.235-.087c-.665-16.95-13.85-33.093-14.41-33.767l-1.724 1.42z"/>
    <path d="M.727 16.775c.193.052 19.196 5.176 31.11-9.823l-1.752-1.39C19.09 19.41 1.51 14.675 1.333 14.622l-.606 2.154zm6.98 15.85v.002c.395-.763 9.87-18.538 28.32-11.38l.813-2.083C16.503 11.27 5.83 31.396 5.72 31.6l1.988 1.024z"/>
  </g>
</svg>
