<svg xmlns="http://www.w3.org/2000/svg" viewBox="0 0 32 32">
  <path fill-rule="evenodd" d="M11 0h10c6.075132 0 11 4.924868 11 11v10c0 6.075132-4.924868 11-11 11H11C4.924868 32 0 27.075132 0 21V11C0 4.924868 4.924868 0 11 0zm1.150943 17.599709c-.123499 1.528384-.740994 2.262009-1.852487 2.262009-1.379074 0-1.975986-1.100437-1.975986-3.729258 0-1.283843.102916-2.098981.370497-2.791849.288165-.774381.90566-1.263464 1.60549-1.263464.658661 0 1.23499.40757 1.502572 1.018923.205832.448326.267582.79476.288165 1.569141L16 14.441048c-.1235-1.283843-.329331-1.97671-.802744-2.812227C14.229846 9.896652 12.562607 9 10.277873 9c-1.831904 0-3.313894.550218-4.363636 1.630277C4.679245 11.914119 4 13.87045 4 16.11208 4 20.330422 6.428816 23 10.236707 23c1.728988 0 3.169811-.550218 4.219554-1.630277.926243-.957787 1.317324-1.83406 1.543739-3.525473l-3.849057-.244541zM28 9h-3.461173l-2.060222 7.283358-.206022.713643c-.041204.125937-.144215.524738-.267829.965518l-.28843-.986507-.206023-.692654L19.45008 9H15l4.45008 14h4.305863L28 9z"/>
</svg>
