<svg xmlns="http://www.w3.org/2000/svg" viewBox="0 0 100 100">
  <path fill-rule="evenodd" d="M49.99558,2 C23.4931091,2 2,24.0340184 2,51.2162567 C2,72.9602345 15.7521716,91.405001 34.8260536,97.912786 C37.2276006,98.3659744 38.1027656,96.8462827 38.1027656,95.5411002 C38.1027656,94.3748955 38.061512,91.2781083 38.0379385,87.1722217 C24.6865159,90.1451374 21.8694865,80.5737991 21.8694865,80.5737991 C19.685994,74.8877957 16.5389361,73.3741465 16.5389361,73.3741465 C12.1807913,70.3226782 16.8689647,70.3831033 16.8689647,70.3831033 C21.6867921,70.7305477 24.2209399,75.4557918 24.2209399,75.4557918 C28.5024709,82.9756974 35.4566439,80.8034145 38.1911661,79.5435508 C38.6272752,76.3651898 39.867829,74.1959281 41.2380368,72.966277 C30.5798827,71.7245409 19.3736456,67.5008253 19.3736456,48.6421467 C19.3736456,43.270354 21.2447896,38.8744268 24.3152337,35.4362377 C23.8201909,34.1914803 22.1729949,29.1852595 24.7867031,22.411604 C24.7867031,22.411604 28.8148194,21.088294 37.9848982,27.4571012 C41.81264,26.3634066 45.9203168,25.8195806 50.0014733,25.7984318 C54.0796832,25.8195806 58.1844133,26.3634066 62.0180484,27.4571012 C71.182234,21.088294 75.2044569,22.411604 75.2044569,22.411604 C77.8240584,29.1852595 76.1768624,34.1914803 75.6847663,35.4362377 C78.7611038,38.8744268 80.6175143,43.270354 80.6175143,48.6421467 C80.6175143,67.5491654 69.3935971,71.7094346 58.7030296,72.9270007 C60.4238927,74.4466923 61.9591148,77.4498206 61.9591148,82.0421294 C61.9591148,88.6194032 61.9001811,93.9277496 61.9001811,95.5411002 C61.9001811,96.8583677 62.766506,98.3901444 65.2004666,97.9097647 C84.2596151,91.3868735 98,72.954192 98,51.2162567 C98,24.0340184 76.5068909,2 49.99558,2"/>
</svg>
