<svg class="hover:fill-blue-400 block" fill="#fff" xmlns="http://www.w3.org/2000/svg" viewBox="0 0 40 40"><path d="M1.677 11.12h7.19V33.9h-7.19V11.12zm26.835-.22c-4.12 0-6.7 2.23-7.177 3.795V11.12h-8.077c.104 1.898 0 22.78 0 22.78h8.077V21.574c0-.685-.032-1.37.176-1.862.556-1.37 1.75-2.79 3.894-2.79 2.805 0 4.08 2.106 4.08 5.192v11.79h8.153V21.233c0-7.057-4.015-10.334-9.125-10.334zM5.14.365C2.483.365.746 2.07.746 4.32c0 2.208 1.688 3.95 4.29 3.95h.052c2.702 0 4.385-1.748 4.385-3.956C9.423 2.066 7.792.364 5.14.364z"/></svg>
