<svg xmlns="http://www.w3.org/2000/svg"  viewBox="0 0 140 140">
  <g transform="translate(13 2)">
    <rect width="38" height="136" rx="6"/>
    <path d="M52.6916556,9.11716251e-14 L111.010323,5.16998912e-07 C114.324031,5.42952182e-07 117.010322,2.68629207 117.010322,6.00000056 C117.010322,7.23138981 116.631446,8.43296041 115.925115,9.44163076 L78.1784144,63.345499 C76.9407686,65.112909 76.620833,65.842655 76.410349,66.7074408 C76.199865,67.5722266 76.199865,68.427774 76.410349,69.2925598 C76.620833,70.1573456 76.9407686,70.8870916 78.1784144,72.6545016 L115.925114,126.55837 C117.825874,129.272734 117.166317,133.014032 114.451953,134.914792 C113.443282,135.621123 112.241712,136 111.010322,136 L52.6916557,136 C50.0170995,136 49.0472407,135.721523 48.069463,135.198602 C47.0916852,134.675681 46.3243195,133.908315 45.8013982,132.930537 C45.2784769,131.952759 45.0000001,130.982901 45.0000001,128.308344 L45,7.6916556 C45,5.01709938 45.2784769,4.04724067 45.8013981,3.06946289 C46.3243194,2.09168511 47.0916851,1.32431939 48.0694629,0.801398111 C49.0472407,0.278476833 50.0170994,9.16629331e-14 52.6916556,9.11716251e-14 Z"/>
  </g>
</svg>
