<svg xmlns="http://www.w3.org/2000/svg" viewBox="0 0 40 40">
  <path d="M38.6947368,0.656625 C37.1114499,1.62983146 35.3720098,2.3165973 33.5547368,2.686 C32.0445812,1.00434003 29.9012442,0.044358622 27.6526316,0.0425 C23.1894737,0.0425 19.5663158,3.793125 19.5663158,8.415 C19.5663158,9.071625 19.6357895,9.7080625 19.7747368,10.321125 C13.0526316,9.9705 7.09473684,6.64275 3.10105263,1.5725 C2.38206864,2.8574436 2.00525863,4.30852933 2.00736842,5.78425 C1.99508731,8.56381791 3.34208545,11.1705633 5.60736842,12.7510625 C4.31949786,12.7086679 3.06119238,12.3505743 1.94105263,11.7076875 L1.94105263,11.8096875 C1.94105263,15.8684375 4.73052632,19.2525 8.43263158,20.0185625 C7.73927354,20.217092 7.02176342,20.3165181 6.30105263,20.3139375 C5.78,20.3139375 5.27157895,20.2629375 4.77894737,20.1651875 C5.80736842,23.4908125 8.79263158,25.9111875 12.3326316,25.9770625 C9.48899348,28.2964472 5.94337133,29.5614061 2.28736842,29.560875 C1.63473684,29.560875 0.989473684,29.522625 0.357894737,29.446125 C4.03750305,31.8973396 8.3491674,33.2040738 12.7578947,33.2041875 C27.6357895,33.2041875 35.7684211,20.4499375 35.7684211,9.386125 C35.7684211,9.0216875 35.7631579,8.6583125 35.7494737,8.302375 C37.3284211,7.120875 38.7021053,5.646125 39.7810526,3.967375 C38.3096067,4.6437622 36.7439992,5.08810538 35.1389474,5.284875 C36.8387294,4.22679372 38.1017562,2.58358051 38.6947368,0.65875" transform="translate(0 3)"/>
</svg>
