<svg xmlns="http://www.w3.org/2000/svg" viewBox="0 0 764 100"><path d="M54.4 21.9v.4c-1.5 8.1-4.4 12.5-9.2 14.4-1.2.4-2.4.7-3.7.7-4.8-.5-8.9-3.6-10.7-8.1-1.1-2-2-4.2-3.1-6.6-2.9-5.9-7-13.3-11.4-13.3-1.4 0-2.8.3-4.2.9C9 12 9 13.6 9 14.2c-.6 5.3 3.9 10.3 10.3 16.2.7.7 1.5 1.3 2.4 2.2 4.1 3.4 7.6 7.4 10.5 11.8 1.7 2.5 2.7 5.5 2.8 8.5.1 3.4-.8 6.7-2.6 9.6-1.1 2-2.4 3.8-3.9 5.5-4.4 5-5.9 9.2-4.2 13.1 1 2 2.8 3.6 5 4.2.8.2 1.6.2 2.4.2 5.7 0 8.3-3.7 9.6-14.2.7-4.4 2.3-8.6 4.6-12.5 2.2-4.4 6.7-7.2 11.6-7.4h1.1c3.6 0 7 1.5 9.4 4.2 1.9 2.3 3.2 5 3.7 7.9.4 2.8.4 5.7 0 8.5 0 .9-.2 1.8-.4 2.6-.7 4.6-1.5 12 .7 14.7.8.8 1.9 1.2 3.1 1.1h.9c2 .1 4-.8 5.3-2.4 2.7-3.9 3.6-8.7 2.6-13.3-.2-1.1-.4-2.8-.7-4.6-1-4.5-1.5-9.1-1.5-13.8.2-6.6 2-10.7 6.1-13.3 1.4-.9 3-1.3 4.6-1.3 3.2-.1 6.3 1.3 8.3 3.7 1.5 1.7 2.7 3.6 3.7 5.7.9 2 1.3 3.9 2 5.7.9 3.3 2.5 6.5 4.6 9.2 1.2 1.3 2.8 2 4.6 2 1.5-.1 2.9-.8 3.9-2 2-2.4 3-5.4 2.6-8.5-.1-4.7-2.1-9.2-5.5-12.5-2.2-1.4-4.4-2.7-6.8-3.7-3.2-1.6-6.1-3.8-8.5-6.3-3.3-3.9-4.3-9.2-2.6-14 0-.2.2-.4.2-.7 1.5-4.8 1.7-7 .2-8.3-.6-.4-1.4-.7-2.2-.7-1.1.1-2.1.5-2.8 1.3-1 1.2-1.9 2.5-2.6 3.9-1.3 2.3-2.7 4.5-4.4 6.6-2.3 2.5-5.4 4.1-8.7 4.4h-.2c-4-.2-7.8-2.2-10.3-5.3-1.2-1.3-2.3-2.8-3.3-4.4-1-1.7-2.2-3.3-3.5-4.8-3.6-4.3-5.6 2.3-6.7 8.9m-9-1.5V20c.9-5.3 1.7-13.1 7.7-16.6 1.9-1 4-1.6 6.1-1.5 6.8 0 11.2 6.8 14 10.9 1.5 2.4 2.8 5.3 4.8 5.3 1.7 0 3.3-1.5 5.7-5.9 1.1-1.9 2.4-3.7 3.7-5.5 2.2-2.8 5.6-4.3 9.2-4.2 3.2 0 6.3 1.1 8.7 3.1 2.7 2.6 4 6.3 3.7 10.1-.1 2.6-.7 5.2-1.7 7.7 0 .2-.2.4-.2.7-.7 2-.4 4.1.7 5.9 2 1.8 4.2 3.4 6.6 4.6 2.7 1.2 5.2 2.6 7.7 4.2 5.3 4.8 8.5 11.5 9 18.6.7 5.5-1 10.9-4.6 15.1-2.7 3.1-6.6 5-10.7 5-4-.1-7.9-1.7-10.7-4.6-3.3-3.5-5.7-7.7-7-12.2-.5-1.7-1.2-3.3-2-4.8-1.1-2.2-1.7-4.2-3.3-4.2-1.5 0-1.7 3.5-1.7 5.5.2 4 .7 7.9 1.5 11.8.4 2 .7 3.7.9 5.3 1.5 15.8-5.9 26-16.8 26h-1.3c-3.9 0-7.5-1.7-10.1-4.6-4.8-5.9-3.5-15.3-2.4-22.1.2-.9.2-1.7.4-2.4.5-3-.1-6.1-1.7-8.7-.6-.6-1.4-.9-2.2-.9H59c-3.7.2-5 4.2-7.2 12.7-1 4.9-2.6 9.6-4.8 14-3.1 5.1-8.7 8.1-14.7 7.8-1.3 0-2.6-.2-3.9-.4-2.8-.7-5.4-2.1-7.7-3.9-2.1-1.6-3.8-3.8-4.8-6.3-1.9-4.4-1.9-9.4 0-13.8 1.3-2.9 3-5.6 5-8.1 1.3-1.7 2.6-3.4 3.7-5.3 1.7-2.6 1.8-6 .2-8.7-2.6-3.5-5.5-6.7-8.7-9.6-.9-.9-1.7-1.5-2.4-2.2C6.3 30.9-1.2 23.2.2 13.3.2 8.4 3.1 4 7.6 2c2.6-1.4 5.6-2 8.5-2C21.3 0 26.2 2.6 29 7c2.5 3.8 4.6 7.8 6.3 12 2.7 6.2 7.1 19.7 10.1 1.4" fill-rule="evenodd" clip-rule="evenodd" fill="#f12330"></path><path d="M724.669 33.895c-.6-1.1 0-2 1.3-2h4.6c.6-.1 1.2.3 1.5.9l12.7 27.7 12-27.7c.3-.6.8-.9 1.5-.9h4.1c1.3 0 2 .9 1.3 2l-22.1 46.9c-.3.6-.8 1-1.5 1.1h-3.3c-.8.1-1.6-.4-1.7-1.2 0-.3 0-.7.2-1l5.9-11.6-16.5-34.2zm-62.7 28.6c3.8.1 7.5-1.5 10-4.4v-6.7c-2.4-1.8-5.3-2.8-8.3-2.8-5 0-8.5 2.2-8.5 6.8 0 3.9 3 7 6.8 7.1m2.4-19c2.7.2 5.4 1 7.7 2.4 0-6.6-2.6-9.8-7.7-9.8-3.1-.1-6.1.6-8.9 2-.6.3-1.3.1-1.5-.5-.1-.1-.1-.3-.1-.4l-.7-2.2c-.3-.8 0-1.6.8-2 0 0 .1 0 .1-.1 3.3-1.7 7-2.5 10.7-2.4 9.2 0 13.5 4.6 13.5 15.3v20.2c0 .9-.7 1.7-1.7 1.7h-2.8c-.8 0-1.4-.5-1.5-1.3v-2.4c-3.1 2.8-7.1 4.2-11.2 4.1-6.7-.1-12-5.7-11.8-12.3v-.2c0-6.9 5.7-12.1 15.1-12.1m-54.8 2.8h-19.9c-.3 0-.5-.2-.6-.5.9-5.4 5.6-9.3 11.1-9.2 5.2.2 9.4 4.1 10 9.2 0 .1 0 .5-.6.5m-9.2-15.2c-9.8.1-17.6 8.1-17.6 17.9v1c-.7 9.6 6.5 18 16.1 18.8.5 0 .9.1 1.4 0 4.7 0 9.3-1.4 13.1-4.1 1.3-.9.9-1.5.4-2.4-.6-.7-.9-1.3-1.5-2-.7-.9-1.3-.6-2.6.2-2.7 1.7-5.7 2.6-8.9 2.6-6.1-.3-11.1-4.9-11.8-10.9 0-.3.1-.6.4-.7h25.2c.8 0 1.5-.6 1.7-1.5 0-.6.2-1.8.2-2.4.3-8.7-6.5-16.1-15.2-16.4-.4-.1-.6-.1-.9-.1m-64.6 29.9c-.4-.7-.7-1.3-2.2-.6-1.5 1.4-3.5 2.2-5.5 2.2-3.5 0-4.1-4.2-3.9-4.6v-19.5c0-.6.4-1.1 1-1.1H534.469c.9 0 1.7-.7 1.7-1.7v-2c0-.9-.7-1.7-1.7-1.7h-9c-1.1 0-1.3-.7-1.3-1.1v-9.4c0-.9-.7-1.7-1.7-1.7h-2.8c-1 0-1.8.7-1.8 1.7v9.5c0 .6-.5 1.2-1.1 1.3h-3.5c-.9 0-1.7.7-1.7 1.7v2c0 .9.7 1.7 1.7 1.7h3.5c.5.1.9.6.9 1.1v20.2c-.4 5 3.4 9.4 8.4 9.8.6 0 1.3 0 1.9-.1 2.9-.1 5.8-1.2 8.1-3 .9-.6 1.3-1.1.6-2.2l-.9-2.5zm25.7-29.9c-3.6-.1-7.2 1.3-9.8 3.9 0 0-.7.7-.7-.4v-17c0-.9-.7-1.7-1.7-1.7h-2.8c-.9 0-1.7.7-1.7 1.7v48.4c0 .9.7 1.7 1.7 1.7h2.8c.9 0 1.7-.7 1.7-1.7v-19.5c-.2-4.7 3.4-8.8 8.1-9.2.7-.2 1.3-.2 2-.2 5.1-.1 9.3 3.9 9.5 9v19.9c0 .9.7 1.7 1.7 1.7h2.8c.9 0 1.7-.7 1.7-1.7v-18.8c1-7.9-4.6-15-12.5-16-1-.1-1.9-.1-2.8-.1m141.3 31.4c-3.2-.1-6.3-1.2-8.9-3.1v-18.7c2.3-2.8 5.6-4.4 9.2-4.4 7.2 0 11.4 6.3 11.4 13.3.5 6.6-4.4 12.3-10.9 12.9h-.8m1.1-31.9c-3.6 0-7.1 1.2-10 3.3v-.4c0-.9-.7-1.7-1.7-1.7h-2.8c-.9 0-1.7.7-1.7 1.7v46.5c0 .9.7 1.7 1.7 1.7h2.8c.9 0 1.7-.7 1.7-1.7v-14.6c2.8 2 6.2 3 9.6 3 9.8-.2 17.6-8.4 17.4-18.2v-.6c.7-9.7-6.6-18.2-16.3-19h-.7m-63.9 0c-3.9-.1-7.6 1.4-10.3 4.1v-1.1c0-.9-.7-1.7-1.7-1.7h-2.8c-.9 0-1.7.7-1.7 1.7v32.3c0 .9.7 1.7 1.7 1.7h2.8c.9 0 1.7-.7 1.7-1.7v-24c2.2-3.2 5.9-5.1 9.8-5 1.2 0 2.4.3 3.5.7.9.4 1.7.4 2.2-.7l1.1-3.1c.9-2.7-3.5-3.2-6.3-3.2m-225.9 16h-19.9c-.3 0-.5-.2-.6-.5.9-5.4 5.6-9.3 11.1-9.2 5.2.2 9.4 4.1 10 9.2-.1.3-.3.5-.6.5m-9.4-15.3c-9.8.1-17.6 8.1-17.6 17.9v1c-.7 9.6 6.5 18 16.1 18.8.5 0 .9.1 1.4 0 4.7 0 9.3-1.4 13.1-4.1 1.3-.9.9-1.5.4-2.4-.6-.7-.9-1.3-1.5-2-.7-.9-1.3-.6-2.6.2-2.7 1.7-5.7 2.6-8.9 2.6-6.1-.3-11.1-4.9-11.8-10.9 0-.3.1-.6.4-.7h25.1c.8 0 1.5-.6 1.7-1.5 0-.6.2-1.8.2-2.4.4-8.7-6.3-16-15-16.4-.3-.1-.7-.1-1-.1m82.4 30.1c-.4-.7-.7-1.3-2.2-.6-1.5 1.4-3.5 2.2-5.5 2.2-3.5 0-4.1-4.2-3.9-4.6v-19.5c0-.6.4-1.1 1-1.1H485.769c.9 0 1.7-.7 1.7-1.7v-2c0-.9-.7-1.7-1.7-1.7h-9c-1.1 0-1.3-.7-1.3-1.1v-9.6c0-.9-.7-1.7-1.7-1.7h-2.8c-1 0-1.8.7-1.8 1.7v9.4c0 .6-.5 1.2-1.1 1.3h-3.5c-.9 0-1.7.7-1.7 1.7v2c0 .9.7 1.7 1.7 1.7h3.5c.5.1.9.6.9 1.1v20.3c-.4 5 3.4 9.4 8.4 9.8.6 0 1.3 0 1.9-.1 2.9-.1 5.8-1.2 8.1-3 .9-.6 1.3-1.1.6-2.2l-.9-2.3zm-43.1-30.1c-3.6 0-7.2 1.3-9.8 3.9 0 0-.7.7-.7-.4v-.9c0-.9-.7-1.7-1.7-1.7h-2.8c-.9 0-1.7.7-1.7 1.7v32.3c0 .9.7 1.7 1.7 1.7h2.8c.9 0 1.7-.7 1.7-1.7v-19.6c-.2-4.7 3.4-8.8 8.1-9.2.7-.2 1.3-.2 2-.2 5.1-.1 9.3 3.9 9.5 9v20c0 .9.7 1.7 1.7 1.7h2.8c.9 0 1.7-.7 1.7-1.7v-18.8c-.2-10.4-6.5-16.1-15.3-16.1m-282.3 31.6c3.8.1 7.5-1.5 10-4.4v-6.6c-2.4-1.8-5.3-2.8-8.3-2.8-5 0-8.5 2.2-8.5 6.8 0 3.7 3 6.8 6.8 7m2.4-19.2c2.7.2 5.4 1 7.7 2.4 0-6.6-2.6-9.8-7.7-9.8-3.1-.1-6.1.6-8.9 2-.6.3-1.3.1-1.5-.5-.1-.1-.1-.3-.1-.4l-.9-2.2c-.3-.8 0-1.6.8-2 0 0 .1 0 .1-.1 3.3-1.7 7-2.5 10.7-2.4 9.2 0 13.5 4.6 13.5 15.3v20.1c0 .9-.7 1.7-1.7 1.7h-2.4c-.8 0-1.4-.5-1.5-1.3v-2.4c-3.1 2.8-7.1 4.2-11.2 4.1-6.7-.2-11.9-5.7-11.8-12.4v-.2c-.2-6.7 5.7-11.9 14.9-11.9m73.8 19.2c3.8.1 7.5-1.5 10-4.4v-6.6c-2.4-1.9-5.3-2.9-8.3-2.9-5 0-8.5 2.2-8.5 6.8 0 3.9 3 7 6.8 7.1m2.4-19.2c2.7.2 5.4 1 7.7 2.4 0-6.6-2.6-9.8-7.7-9.8-3.1-.1-6.1.6-8.9 2-.6.3-1.3.1-1.5-.5-.1-.1-.1-.3-.1-.4l-.7-2.2c-.3-.8 0-1.6.8-2 0 0 .1 0 .1-.1 3.3-1.7 7-2.5 10.7-2.4 9.2 0 13.5 4.6 13.5 15.3v20.1c0 .9-.7 1.7-1.7 1.7h-2.4c-.8 0-1.4-.5-1.5-1.3v-2.4c-3.1 2.8-7.1 4.2-11.2 4.1-6.7-.1-12-5.7-11.8-12.3v-.2c-.4-6.8 5.3-12 14.7-12m74 17.7c-.4-.7-.7-1.3-2.2-.6-1.5 1.4-3.5 2.2-5.5 2.2-3.5 0-4.1-4.2-3.9-4.6v-19.5c0-.6.4-1.1 1-1.1H312.969c.9 0 1.7-.7 1.7-1.7v-2c0-.9-.7-1.7-1.7-1.7h-9c-1.1 0-1.3-.7-1.3-1.1v-9.6c0-.9-.7-1.7-1.7-1.7h-2.8c-1 0-1.8.7-1.8 1.7v9.4c0 .6-.5 1.2-1.1 1.3h-3.3c-.9 0-1.7.7-1.7 1.7v2c0 .9.7 1.7 1.7 1.7h3.5c.5.1.9.6.9 1.1v20.3c-.4 5 3.4 9.4 8.4 9.8.6 0 1.3 0 1.9-.1 2.9-.1 5.8-1.2 8.1-3 .9-.6 1.3-1.1.6-2.2l-1.1-2.3zm-112.5 1.5c-3.2-.1-6.3-1.2-8.9-3.1v-18.7c2.3-2.8 5.6-4.4 9.2-4.4 7.2 0 11.4 6.3 11.4 13.3.5 6.6-4.4 12.3-10.9 12.9h-.8m1.1-31.9c-3.6 0-7.1 1.2-10 3.3v-.4c0-.9-.7-1.7-1.7-1.7h-2.8c-.9 0-1.7.7-1.7 1.7v46.5c0 .9.7 1.7 1.7 1.7h2.8c.9 0 1.7-.7 1.7-1.7v-14.6c2.8 2 6.2 3 9.6 3 9.8-.2 17.6-8.4 17.4-18.2v-.6c.7-9.7-6.6-18.2-16.3-19h-.7m76.3 0c-3.9-.1-7.6 1.4-10.3 4.1v-1.1c0-.9-.7-1.7-1.7-1.7h-2.8c-.9 0-1.7.7-1.7 1.7v32.3c0 .9.7 1.7 1.7 1.7h2.8c.9 0 1.7-.7 1.7-1.7v-24.2c2.2-3.2 5.9-5.1 9.8-5 1.2 0 2.4.3 3.5.7.9.4 1.7.4 2.2-.7l1.1-3.1c.9-2.7-3.5-3-6.3-3m86.6.3c-5.2-.1-10.1 2.7-12.7 7.2-2.6-4.7-7.7-7.5-13.1-7.2-3.6-.1-7.2 1.3-9.8 3.9 0 0-.7.7-.7-.4v-.9c0-.9-.7-1.7-1.7-1.7h-2.8c-.9 0-1.7.7-1.7 1.7v32.3c0 .9.7 1.7 1.7 1.7h2.8c.9 0 1.7-.7 1.7-1.7v-19.6c-.2-4.7 3.4-8.8 8.1-9.2.7-.2 1.3-.2 2-.2 5.1-.1 9.3 3.9 9.5 9v20c0 .9.7 1.7 1.7 1.7h3c.9 0 1.7-.7 1.7-1.7v-19.6c-.2-4.7 3.4-8.8 8.1-9.2.7-.2 1.3-.2 2-.2 5.1-.1 9.3 3.9 9.5 9v20c0 .9.7 1.7 1.7 1.7h2.8c.9 0 1.7-.7 1.7-1.7v-18.8c-.4-10.4-6.7-16.1-15.5-16.1" fill-rule="evenodd" clip-rule="evenodd" fill="#000000"></path></svg>
