<svg fill="none" height="32" viewBox="0 0 210 32" width="210" xmlns="http://www.w3.org/2000/svg">
<path clip-rule="evenodd" d="M59.5869 19.5832V19.5765C59.546 18.6977 59.2968 17.9349 58.8793 17.3109C58.5683 16.8429 58.1689 16.4569 57.7171 16.1391C57.0378 15.6626 56.2428 15.3365 55.3925 15.0881C54.5411 14.8419 53.6319 14.6744 52.714 14.5375L52.7112 14.5364H52.7093C51.0201 14.3025 49.8017 14.0333 49.1007 13.672C48.7488 13.4931 48.5338 13.3067 48.3997 13.1088C48.2676 12.9101 48.1932 12.6828 48.1847 12.3336V12.3042C48.1856 11.977 48.2723 11.6822 48.4435 11.3977C48.6993 10.9744 49.1663 10.5788 49.8273 10.2917C50.4855 10.0043 51.3282 9.82943 52.2908 9.8303C53.5806 9.8303 54.5858 10.11 55.3258 10.5874C56.0639 11.0668 56.5632 11.7411 56.8439 12.6504L56.9807 13.1003L59.218 12.3518L59.2103 12.3185C58.8527 10.7919 58.0262 9.55167 56.819 8.73265C55.614 7.91189 54.0637 7.50865 52.2603 7.50865C50.2116 7.50761 48.5995 8.06592 47.4846 8.96186C46.3709 9.85415 45.7717 11.0924 45.7736 12.3451V12.3575C45.7879 13.2353 46.0514 13.9877 46.4936 14.5726C46.8238 15.0121 47.2432 15.3544 47.7035 15.6247C48.395 16.0298 49.1816 16.2799 49.9813 16.4655C50.7814 16.6489 51.5983 16.765 52.3487 16.8744H52.3506C53.2751 17.0065 54.0532 17.1635 54.6895 17.348C55.6473 17.6239 56.2733 17.9634 56.6346 18.3257C56.8171 18.5085 56.9419 18.6957 57.0293 18.9089C57.1168 19.122 57.1673 19.3644 57.1767 19.6564V19.6698L57.1777 19.6831C57.1824 19.7421 57.1843 19.8002 57.1843 19.8581C57.1824 20.4241 56.9818 20.9224 56.6024 21.3267C56.2332 21.709 55.7024 22.0458 55.0444 22.2835C54.3862 22.5223 53.6023 22.662 52.7407 22.662C51.1893 22.6629 49.9338 22.3463 49.037 21.7861C48.5871 21.5056 48.2227 21.1669 47.9385 20.7656C47.655 20.3641 47.4494 19.898 47.3306 19.3512L47.2213 18.8508L44.9746 19.6032C45.1154 20.465 45.4141 21.2449 45.8535 21.9212C46.5155 22.9426 47.4905 23.7169 48.6708 24.2239C49.8511 24.7317 51.2387 24.9828 52.7701 24.9828C53.9154 24.9828 54.9835 24.8088 55.928 24.4739C56.8706 24.1391 57.6924 23.6417 58.3267 22.9901L58.3295 22.9884V22.9873C59.1799 22.1018 59.5888 20.9149 59.5888 19.7316C59.5888 19.685 59.5888 19.6366 59.5869 19.5889V19.5832ZM69.5425 7.5083C67.2409 7.5083 65.1464 8.50606 63.6389 10.1001C62.1294 11.6934 61.1954 13.8904 61.1954 16.3053C61.1954 18.6937 62.1322 20.8622 63.6416 22.4325C65.1512 24.0028 67.2447 24.9835 69.5425 24.9825C71.8548 24.9835 73.9558 24.0039 75.469 22.4325C76.9833 20.8622 77.9202 18.6937 77.9202 16.3053C77.9202 13.8904 76.9852 11.6934 75.472 10.0992C73.9606 8.50501 71.8576 7.5083 69.5425 7.5083ZM73.7532 20.8061C72.6689 21.957 71.1881 22.6608 69.5425 22.6617C67.9142 22.6617 66.4315 21.9579 65.3423 20.8052C64.2553 19.6533 63.5762 18.0612 63.5762 16.3053C63.5762 14.5011 64.2581 12.8784 65.3453 11.7085C66.4353 10.5395 67.9162 9.82996 69.5425 9.82996C71.1861 9.831 72.6651 10.5395 73.7504 11.7085C74.8327 12.8765 75.5082 14.4992 75.5082 16.3053C75.5082 18.0631 74.8357 19.6552 73.7532 20.8061ZM91.92 17.8659C91.9181 19.2737 91.4188 20.4417 90.5876 21.272C89.7554 22.0996 88.5787 22.5997 87.1549 22.6017C85.7633 22.5997 84.5926 22.1013 83.7584 21.272C82.9251 20.4398 82.4201 19.2718 82.4181 17.8659V7.89902H80.0375V17.8659C80.0356 19.8957 80.7822 21.6895 82.0577 22.9621C83.3313 24.2376 85.1251 24.9842 87.1549 24.9834C89.1979 24.9842 90.9994 24.2386 92.2768 22.9631C93.556 21.6906 94.3026 19.8957 94.3017 17.8659V7.89902H91.92V17.8659ZM104.131 7.5083C102.088 7.50639 100.286 8.25214 99.0084 9.53235C97.7282 10.8096 96.9824 12.6121 96.9843 14.6562V24.6231H99.366V14.6562C99.3669 13.2494 99.872 12.0823 100.708 11.251C101.545 10.4217 102.724 9.92132 104.131 9.92045C105.539 9.92132 106.708 10.4206 107.538 11.2491C108.366 12.0796 108.865 13.2475 108.867 14.6562V24.6231H111.248V14.6562C111.249 12.6121 110.504 10.8107 109.228 9.53322C107.956 8.25301 106.161 7.50639 104.131 7.5083ZM127.511 0.79326V10.2342C127.009 9.66549 126.433 9.16618 125.797 8.75719C124.567 7.96672 123.109 7.50726 121.545 7.5083C119.229 7.50726 117.133 8.50606 115.629 10.1001C114.123 11.6951 113.198 13.8913 113.198 16.3053C113.197 18.6917 114.125 20.8602 115.632 22.4316C117.138 24.0028 119.233 24.9835 121.545 24.9825C123.857 24.9835 125.952 24.0028 127.458 22.4316C128.964 20.8602 129.892 18.6917 129.891 16.3053V0H129.881L127.511 0.79326ZM125.747 20.7624C124.659 21.9027 123.175 22.601 121.545 22.6018C119.914 22.601 118.43 21.9027 117.343 20.7624C116.256 19.6209 115.579 18.045 115.579 16.3053C115.579 14.5343 116.259 12.9344 117.345 11.7788C118.434 10.6243 119.916 9.92028 121.545 9.91941C123.174 9.92028 124.656 10.6243 125.744 11.7788C126.831 12.9344 127.511 14.5343 127.511 16.3053C127.511 18.045 126.834 19.6209 125.747 20.7624ZM146.15 19.5832V19.5765C146.109 18.6977 145.86 17.9349 145.442 17.3109C145.131 16.8429 144.732 16.4569 144.28 16.1391C143.601 15.6626 142.806 15.3365 141.955 15.0881C141.104 14.8419 140.195 14.6744 139.277 14.5375L139.274 14.5364H139.271C137.583 14.3025 136.365 14.0333 135.664 13.672C135.311 13.4931 135.097 13.3067 134.963 13.1088C134.831 12.9101 134.755 12.6828 134.748 12.3336V12.3042C134.749 11.977 134.835 11.6822 135.007 11.3977C135.262 10.9744 135.729 10.5788 136.389 10.2917C137.048 10.0043 137.891 9.82943 138.854 9.8303C140.144 9.8303 141.149 10.11 141.889 10.5874C142.627 11.0668 143.126 11.7411 143.407 12.6504L143.544 13.1003H143.663L145.79 12.3888L145.773 12.3185C145.416 10.7919 144.589 9.55167 143.382 8.73265C142.177 7.91189 140.627 7.50865 138.824 7.50865C136.775 7.50761 135.162 8.06592 134.048 8.96186C132.934 9.85415 132.335 11.0924 132.337 12.3451V12.3575C132.351 13.2353 132.613 13.9877 133.057 14.5726C133.387 15.0121 133.806 15.3544 134.265 15.6247C134.958 16.0298 135.745 16.2799 136.544 16.4655C137.344 16.6489 138.161 16.765 138.912 16.8744H138.914C139.838 17.0065 140.616 17.1635 141.253 17.348C142.21 17.6239 142.835 17.9634 143.198 18.3257C143.38 18.5085 143.505 18.6957 143.592 18.9089C143.68 19.122 143.73 19.3644 143.74 19.6564V19.6688L143.741 19.6831C143.746 19.7421 143.748 19.8002 143.748 19.8581C143.746 20.4241 143.545 20.9224 143.165 21.3267C142.796 21.709 142.266 22.0458 141.607 22.2835C140.949 22.5223 140.166 22.662 139.304 22.662C137.752 22.6629 136.497 22.3463 135.599 21.7861C135.149 21.5056 134.786 21.1669 134.501 20.7656C134.218 20.3641 134.013 19.898 133.894 19.3512L133.793 18.8879L131.544 19.6413C131.688 20.4878 131.984 21.2553 132.417 21.9212C133.078 22.9426 134.054 23.7169 135.233 24.2239C136.414 24.7317 137.802 24.9828 139.333 24.9828C140.478 24.9828 141.546 24.8088 142.491 24.4739C143.434 24.1391 144.255 23.6417 144.89 22.9901L144.893 22.9884V22.9873C145.743 22.1018 146.152 20.9149 146.152 19.7316C146.152 19.685 146.151 19.6366 146.15 19.5889V19.5832Z" fill="#211D1E" fill-rule="evenodd"></path>
<path clip-rule="evenodd" d="M153.697 4.34082H153.628L151.315 5.11511V7.89901H147.113V10.2797H151.315V24.6227H153.697V10.2797H158.064V7.89901H153.697V4.34082Z" fill="#211D1E" fill-rule="evenodd"></path>
<path clip-rule="evenodd" d="M166.096 7.54199C165.033 7.54199 164.059 7.71046 163.196 8.04043C161.901 8.53313 160.859 9.3967 160.162 10.5382C159.464 11.6776 159.109 13.0797 159.11 14.6556V24.6225H161.491V14.6556C161.491 13.8348 161.611 13.1281 161.828 12.5346C162.155 11.6444 162.686 11.0013 163.424 10.5514C164.162 10.1035 165.13 9.85338 166.318 9.85338C166.571 9.85338 166.833 9.86469 167.104 9.88749L167.792 9.94562V7.66103L167.223 7.60204C166.837 7.56201 166.461 7.54199 166.096 7.54199Z" fill="#211D1E" fill-rule="evenodd"></path>
<path clip-rule="evenodd" d="M169.955 24.6229H172.337V7.89917H169.955V24.6229Z" fill="#211D1E" fill-rule="evenodd"></path>
<path clip-rule="evenodd" d="M183.149 7.5083C180.836 7.5083 178.741 8.49648 177.237 10.0753C175.73 11.6544 174.803 13.8295 174.803 16.2159V32L177.183 31.202V22.2823C177.686 22.8502 178.262 23.3457 178.901 23.7508C180.131 24.5336 181.588 24.9835 183.149 24.9825C185.462 24.9835 187.559 23.9943 189.065 22.4069C190.57 20.8204 191.498 18.63 191.498 16.2159C191.498 13.8295 190.568 11.6544 189.063 10.0753C187.558 8.49648 185.462 7.5083 183.149 7.5083ZM187.349 20.7424C186.261 21.8972 184.778 22.601 183.149 22.6018C181.52 22.601 180.039 21.8972 178.951 20.7424C177.864 19.5868 177.183 17.9869 177.183 16.2159C177.183 14.4764 177.862 12.9003 178.948 11.759C180.036 10.6185 181.52 9.92045 183.149 9.92045C184.78 9.92045 186.264 10.6185 187.352 11.759C188.438 12.9003 189.115 14.4764 189.115 16.2159C189.115 17.9869 188.436 19.5868 187.349 20.7424ZM207.542 10.2647C206.813 9.44968 205.925 8.76102 204.906 8.27493C203.887 7.78885 202.737 7.5083 201.496 7.5083C199.181 7.50743 197.084 8.50606 195.581 10.1002C194.075 11.6953 193.149 13.8915 193.149 16.3053C193.149 18.7213 194.086 20.8956 195.624 22.4593C197.159 24.0248 199.3 24.9835 201.677 24.9827C203.597 24.9846 205.273 24.4947 206.606 23.5312C207.901 22.5982 208.851 21.2304 209.429 19.5336L207.18 18.7812L207.111 18.9676C206.764 19.9112 206.221 20.8138 205.379 21.4777C204.535 22.1406 203.378 22.5982 201.677 22.602C199.97 22.601 198.452 21.9304 197.344 20.8044C196.367 19.8085 195.716 18.4589 195.565 16.8809H209.836L209.843 16.254C209.845 16.215 209.845 16.176 209.845 16.1351C209.841 14.0293 209.001 11.8959 207.542 10.2647ZM195.803 14.5002C196.131 13.2837 196.782 12.2223 197.65 11.4309C198.689 10.4835 200.026 9.92045 201.496 9.91958C202.951 9.92045 204.289 10.4826 205.339 11.4318C206.213 12.2242 206.874 13.2856 207.213 14.5002H195.803Z" fill="#211D1E" fill-rule="evenodd"></path>
<path clip-rule="evenodd" d="M170.512 3.57886C170.093 3.57886 169.74 3.72244 169.454 4.00768C169.166 4.29502 169.023 4.64883 169.023 5.06739C169.023 5.48578 169.166 5.8396 169.454 6.12502C169.74 6.41218 170.093 6.55489 170.512 6.55489C170.93 6.55489 171.283 6.41218 171.57 6.12502C171.856 5.8396 172 5.48578 172 5.06739C172 4.64883 171.856 4.29502 171.57 4.00768C171.283 3.72244 170.93 3.57886 170.512 3.57886ZM20.8064 4.98473H11.9674C11.6649 4.98473 11.3805 4.9856 11.1096 4.98855C9.1445 4.99047 7.55032 5.35856 6.17682 6.20977C5.63661 6.57595 5.10023 7.01626 4.61519 7.52044C3.43383 8.74741 2.83357 10.5974 2.4084 12.1162L1.10539 16.4534C0.728771 17.7994 0.456751 18.935 0.396883 20.0307C0.396883 20.0335 0.396883 20.0365 0.395838 20.0393C0.143833 23.0971 1.53247 25.201 3.30452 26.3728C4.02642 26.8894 5.56334 27.636 7.57034 27.5001C7.66153 27.4943 7.75203 27.4905 7.84619 27.48C7.84619 27.48 7.85002 27.48 7.85176 27.479C8.38727 27.4296 8.90659 27.3165 9.40121 27.1433C9.40417 27.1424 9.40695 27.1414 9.40973 27.1405C9.54479 27.0966 9.65513 27.0519 9.75415 27.0082C9.77974 26.9967 9.80741 26.9844 9.83125 26.9739C9.84065 26.9692 9.84918 26.9654 9.85771 26.9616C9.93672 26.9264 10.0157 26.8913 10.0927 26.8532C10.1261 26.837 10.1593 26.8208 10.1945 26.8037C10.2916 26.7552 10.3951 26.6991 10.5055 26.6354C10.5208 26.6269 10.5351 26.6173 10.5502 26.6088C10.6139 26.5707 10.6786 26.5308 10.7462 26.4861C11.7429 25.8317 13.1098 24.4354 14.1018 20.9648L17.6619 9.69469C17.9177 8.78065 18.944 5.72473 20.8064 4.98473Z" fill="#211D1E" fill-rule="evenodd"></path>
<path clip-rule="evenodd" d="M34.895 8.78648C34.8912 8.77795 34.8884 8.77029 34.8846 8.76177C34.8816 8.75602 34.8797 8.75028 34.8769 8.74558C34.7105 8.38028 34.5146 8.04073 34.2939 7.72868C33.3845 6.40095 31.9437 5.27581 29.7884 4.97246C29.7456 4.96567 29.7028 4.95906 29.66 4.95332C29.2319 4.89815 28.7698 4.87813 28.2799 4.91155C28.1876 4.91712 28.0973 4.92199 28.004 4.93156L27.9983 4.93243C27.4628 4.98186 26.9426 5.09498 26.448 5.26919C26.4452 5.26919 26.4433 5.27006 26.4403 5.27111C26.3052 5.31479 26.1949 5.35952 26.0952 5.4032C26.0694 5.41469 26.0419 5.42704 26.0181 5.43836C26.0096 5.44218 26.001 5.44601 25.9915 5.45071C25.9124 5.485 25.8345 5.52015 25.7565 5.55827C25.7241 5.57445 25.6899 5.59064 25.6557 5.60874C25.5586 5.65712 25.454 5.71229 25.3437 5.77616C25.3294 5.78469 25.3143 5.79409 25.299 5.80279C25.2361 5.84073 25.1705 5.88163 25.104 5.92549C24.1072 6.57986 22.7404 7.97599 21.7474 11.4468L18.1873 22.7167C17.9315 23.6308 16.9052 26.6869 15.043 27.4267H23.8828C24.1853 27.4267 24.4686 27.4258 24.7407 27.4231C26.7048 27.4211 28.2988 27.053 29.6723 26.2027C30.2126 25.8355 30.7491 25.3952 31.234 24.891C32.4153 23.6651 33.0165 21.8142 33.4416 20.2952L34.7438 15.9589C35.1204 14.6122 35.3935 13.4764 35.4525 12.3807C35.4525 12.3779 35.4533 12.376 35.4533 12.3732C35.5684 10.9797 35.3421 9.7851 34.895 8.78648Z" fill="#211D1E" fill-rule="evenodd"></path>
</svg>